# xmcd
#
# Track frame offsets: 
#        150
#        15278
#        30340
#        48073
#        66536
#        82769
#        103852
#        120749
#        144545
#        160990
#        175770
#        199314
#        213934
#        229484
#        254220
#
# Disc length: 3703 seconds
#
# Revision: 0
# Processed by: cddbd v1.5.2PL0 Copyright (c) Steve Scherf et al.
# Submitted via: ExactAudioCopy v0.95a5
#
DISCID=ce0e750f
DTITLE=Rhythm Bombs - Better Be Ready
DYEAR=2008
DGENRE=Blues
TTITLE0=All Said 'n' Done
TTITLE1=Sherry Flip
TTITLE2=Put The Hammer Down
TTITLE3=Raisin' Up My Hand
TTITLE4=Why Do You
TTITLE5=Ain't That The Way
TTITLE6=Better Be Ready
TTITLE7=Jaguar And Thunderbird
TTITLE8=Swingin' Sue
TTITLE9=My Mumblin Baby
TTITLE10=Live My Life Too Fast
TTITLE11=Route 90
TTITLE12=Change My Ways
TTITLE13=Disconnect My Phone
TTITLE14=Ain't Nobody
EXTD=
EXTT0=
EXTT1=
EXTT2=
EXTT3=
EXTT4=
EXTT5=
EXTT6=
EXTT7=
EXTT8=
EXTT9=
EXTT10=
EXTT11=
EXTT12=
EXTT13=
EXTT14=
PLAYORDER=
